PathFileType	4	(X/Y/Z)	Patient4_TMGait_0pt6_02_left_05.trc.trc
DataRate	CameraRate	NumFrames	NumMarkers	Units	OrigDataRate	OrigDataStartFrame	OrigNumFrames
85.365853658537	85.365853658537	4	33	mm	85.365853658537	71	       141
Frame#	Time	Sacral			L.Shoulder			Chest			R.Shoulder			Neck			R.ASIS			L.ASIS			R.Thigh.Superior			R.Thigh.Lateral			R.Thigh.Inferior			R.Patella			L.Thigh.Superior			L.Thigh.Lateral			L.Thigh.Inferior			L.Patella			L.Shank.Superior			L.Shank.Lateral			L.Shank.Inferior			R.Shank.Superior			R.Shank.Lateral			R.Shank.Inferior			R.Heel			R.Midfoot.Superior			R.Midfoot.Lateral			R.Toe			L.Heel			L.Midfoot.Lateral			L.Midfoot.Superior			L.Toe			L.Elbow			L.Wrist			R.Elbow			R.Wrist			
		X1	Y1	Z1	X2	Y2	Z2	X3	Y3	Z3	X4	Y4	Z4	X5	Y5	Z5	X6	Y6	Z6	X7	Y7	Z7	X8	Y8	Z8	X9	Y9	Z9	X10	Y10	Z10	X11	Y11	Z11	X12	Y12	Z12	X13	Y13	Z13	X14	Y14	Z14	X15	Y15	Z15	X16	Y16	Z16	X17	Y17	Z17	X18	Y18	Z18	X19	Y19	Z19	X20	Y20	Z20	X21	Y21	Z21	X22	Y22	Z22	X23	Y23	Z23	X24	Y24	Z24	X25	Y25	Z25	X26	Y26	Z26	X27	Y27	Z27	X28	Y28	Z28	X29	Y29	Z29	X30	Y30	Z30	X31	Y31	Z31	X32	Y32	Z32	X33	Y33	Z33	

71	6.890000000000	693.866816630560	1005.152075811209	467.260461603152	890.620973879940	1436.248909923210	309.736626762667	982.429482566204	1356.875883959943	472.612065456013	889.480542221283	1425.896189118621	642.830338765890	861.620665085148	1489.282487296043	464.681811485143	914.169837480240	936.352921072747	594.729840368934	911.592585573238	957.029056515427	319.748915588843	986.760211625811	761.030454738932	563.587327692793	937.802151590938	638.747190030597	633.290268630937	1025.839149356688	603.693582285271	552.384342238387	1056.585007158890	519.804289170083	566.553353029386	914.519899974554	727.744199038373	346.865813649867	798.063598726689	633.989335931119	284.353348609703	858.363784226800	540.324701921422	348.154628977718	843.200614332601	473.612362128488	357.215373227802	810.666334723294	407.537833576344	349.243589202399	707.289505749680	303.167948378263	302.314934920685	748.273077197155	187.507723788104	372.440813569942	1040.014058463324	428.981937718052	574.819955064892	984.673167969736	313.477628818605	632.875497147755	1053.784721532195	228.795285752267	579.413117718945	960.042291286428	44.240685797983	543.578014577617	1122.237291715903	117.199295363688	589.155102340907	1042.605869918778	41.297388282756	619.373183035429	1245.749528680719	78.870831537476	617.217531133666	612.329676990413	37.069643000564	424.641066534803	677.894463259798	34.231201471076	337.031319267498	763.477996191196	95.106130424794	356.782726055474	888.664819383394	43.322140261349	314.653289973129	920.515543347456	1095.726458606843	167.209049387618	1165.028795583401	1028.955494447009	204.382875210181	756.927055110554	1105.721465014493	748.951472205177	733.561054603809	846.767709465911	764.137783229354	
72	6.901714285714	696.523053142853	1003.225642222309	469.017301082007	891.483002574422	1434.704268939785	311.695220755101	983.520568063525	1355.844135926714	474.637130974207	890.169778894596	1424.481224385275	644.832930655540	862.339145530020	1487.789041861763	466.579607853762	916.809701206309	934.543899565460	596.552853446605	914.237414034590	955.399277014871	321.532768841698	987.608814997326	756.996770616217	566.062535443112	935.696223558559	635.284410066227	634.342981460215	1023.563592884041	599.784656995843	553.502488285762	1052.266932687996	516.558655549718	566.621805183884	915.789750183085	725.891635142442	348.127160259260	798.422289165358	632.832916919045	285.742753072928	858.139765080740	538.633577187219	349.278650824462	842.613004840999	471.392420758763	358.084258453863	808.740621410058	405.772772847469	350.152062339935	703.552276220822	303.121633245913	303.064292660695	742.763919944441	186.588488852997	372.685345099115	1037.813776277811	425.796782479979	575.219243715522	984.007537596729	309.238883133873	632.524817853595	1054.918659336214	225.886358262291	579.092550313811	963.492734671626	41.609977323797	542.395102826859	1125.361903562912	114.344853161786	587.901556294695	1045.653288355979	39.378369371168	618.646122200641	1248.859942173137	76.339582776547	616.875018909290	605.157957277401	36.886574920352	424.518188305420	670.826074756864	33.949704693789	337.020337092148	756.550866340347	94.873505692826	356.761666084773	881.756823334511	42.939179324846	314.554084424262	920.624997908148	1094.093603087840	169.035540322006	1164.836653947092	1026.180840095369	206.597558691834	756.788510896048	1104.679481451770	750.195097466500	732.731040409337	845.652575337720	764.554395280458	
73	6.913428571429	699.171961107857	1001.304288349957	470.964765237892	892.136000873119	1433.155199608058	313.753738443955	984.580943440716	1354.922010613210	476.725016253752	890.873663274766	1423.065262485188	646.979955267826	863.035193819469	1486.335266643046	468.596255331899	919.539936499559	932.806355388984	598.478125421029	916.922845008226	953.761734147803	323.459797462822	989.028399787232	753.450413802149	568.574375472467	934.385617007079	632.308557222223	635.309604304130	1022.233904614539	596.489619402956	554.670813531477	1048.766741038057	513.477441523723	566.774041675663	917.633498382187	724.109346735100	349.481413884745	799.536791305526	631.501476592421	287.343778339241	858.956542760718	536.846772890489	350.552664337532	843.164405032550	468.891788890449	359.065358073509	807.681251434350	403.793000952431	351.192632184575	700.458536797496	303.173731860337	303.949337617870	737.589686972987	185.677569309771	372.983881181301	1035.856556387377	422.745780381633	575.564138432287	982.780232443599	305.625611903347	632.194915423722	1054.602827019721	223.093921599224	578.677868630719	963.786004805916	40.117633258784	541.195703422047	1125.938432993996	111.225783069094	586.589301328015	1045.487705172903	38.022990527881	617.932673790004	1249.039093795859	72.552195246906	616.410772875409	598.009974921861	37.009827588346	424.341799622716	663.797554434130	33.794985155042	336.995182731169	749.767172605516	94.662861934903	356.698597182780	874.888938701904	42.499334038860	314.434719763027	920.450783353759	1092.299210564101	171.095840327465	1164.219539994487	1022.365930944760	208.759847003920	757.420395331495	1103.179177609067	751.400466711553	733.151216526545	844.040846844637	764.953143855625	
74	6.925142857143	701.728086765145	999.499616678046	473.053832038621	892.625891924838	1431.693737409122	315.907299744386	985.625654840132	1354.159323783006	478.873422499843	891.618737738920	1421.725052790838	649.263013924361	863.742258052317	1485.011550889000	470.713012503829	922.273667874959	931.252333344317	600.502036290037	919.565356236727	952.214688906321	325.530791225394	990.957825120811	750.536172027532	571.095096536331	933.871934028331	629.945461615563	636.226686715981	1021.843255428748	593.902252393853	555.934864857511	1046.182149707158	510.714394039629	567.072627520425	920.036176922898	722.492971931477	350.936228766578	801.469469912027	630.031551317448	289.140119281999	860.941126309735	535.023295218828	351.956893835234	845.002783733534	466.167297907028	360.106668278925	807.611715838577	401.660876971772	352.332169301749	698.129457272610	303.428011923964	304.947511558052	732.850928009857	184.889969350135	373.317021285160	1034.241849823131	419.971718421920	575.891699023978	981.222264120706	302.713525350364	632.018012635237	1053.087971351721	220.501137545948	578.232367762174	961.356752340290	39.507275736515	540.103733400535	1124.289254241867	108.036241298867	585.335266299620	1042.611947112949	37.130973644013	617.316294735228	1246.736687816518	67.994831831882	615.863676176699	590.938607011174	37.686869102009	424.103247135993	656.840586189053	33.921680513901	336.948490355365	743.207004915243	94.528146059827	356.572732967369	868.056241824117	41.980288930192	314.301760227636	919.980701339458	1090.415513141754	173.414587045542	1163.116025312871	1017.532056965865	210.848817063687	758.849159866645	1101.292639926297	752.578152546512	734.846231862886	842.005897567636	765.351619905516	
